<svg width="50" height="50" viewBox="0 0 50 50" fill="none" xmlns="http://www.w3.org/2000/svg">
<path d="M25 13C22.6266 13 20.3065 13.7038 18.3332 15.0224C16.3598 16.3409 14.8217 18.2151 13.9134 20.4078C13.0052 22.6005 12.7676 25.0133 13.2306 27.3411C13.6936 29.6689 14.8365 31.8071 16.5147 33.4853C18.1929 35.1635 20.3311 36.3064 22.6589 36.7694C24.9867 37.2324 27.3995 36.9948 29.5922 36.0866C31.7849 35.1783 33.6591 33.6402 34.9776 31.6668C36.2962 29.6935 37 27.3734 37 25C37 21.8174 35.7357 18.7652 33.4853 16.5147C31.2348 14.2643 28.1826 13 25 13ZM25 33C23.4177 33 21.871 32.5308 20.5554 31.6518C19.2398 30.7727 18.2145 29.5233 17.609 28.0615C17.0035 26.5997 16.845 24.9911 17.1537 23.4393C17.4624 21.8874 18.2243 20.462 19.3431 19.3431C20.462 18.2243 21.8874 17.4624 23.4393 17.1537C24.9911 16.845 26.5997 17.0035 28.0615 17.609C29.5233 18.2145 30.7727 19.2398 31.6518 20.5554C32.5308 21.871 33 23.4177 33 25C32.9934 27.1197 32.1484 29.1507 30.6496 30.6496C29.1507 32.1484 27.1197 32.9934 25 33ZM36 0H14C10.287 0 6.72601 1.475 4.1005 4.1005C1.475 6.72601 0 10.287 0 14V36C0 39.713 1.475 43.274 4.1005 45.8995C6.72601 48.525 10.287 50 14 50H36C39.713 50 43.274 48.525 45.8995 45.8995C48.525 43.274 50 39.713 50 36V14C50 10.287 48.525 6.72601 45.8995 4.1005C43.274 1.475 39.713 0 36 0ZM46 36C46 37.3132 45.7413 38.6136 45.2388 39.8268C44.7362 41.0401 43.9997 42.1425 43.0711 43.0711C42.1425 43.9997 41.0401 44.7362 39.8268 45.2388C38.6136 45.7413 37.3132 46 36 46H14C12.6868 46 11.3864 45.7413 10.1732 45.2388C8.95991 44.7362 7.85752 43.9997 6.92893 43.0711C6.00035 42.1425 5.26375 41.0401 4.7612 39.8268C4.25866 38.6136 4 37.3132 4 36V14C4 11.3478 5.05357 8.8043 6.92893 6.92893C8.8043 5.05357 11.3478 4 14 4H36C37.3132 4 38.6136 4.25866 39.8268 4.7612C41.0401 5.26375 42.1425 6.00035 43.0711 6.92893C43.9997 7.85752 44.7362 8.95991 45.2388 10.1732C45.7413 11.3864 46 12.6868 46 14V36ZM41 12C41 12.5933 40.8241 13.1734 40.4944 13.6667C40.1648 14.1601 39.6962 14.5446 39.148 14.7716C38.5999 14.9987 37.9967 15.0581 37.4147 14.9424C36.8328 14.8266 36.2982 14.5409 35.8787 14.1213C35.4591 13.7018 35.1734 13.1672 35.0576 12.5853C34.9419 12.0033 35.0013 11.4001 35.2284 10.8519C35.4554 10.3038 35.8399 9.83523 36.3333 9.50559C36.8266 9.17595 37.4067 9 38 9C38.7957 9 39.5587 9.31607 40.1213 9.87868C40.6839 10.4413 41 11.2044 41 12Z" fill="#F8F8F8"/>
</svg>
