<svg width="54" height="54" viewBox="0 0 54 54" fill="none" xmlns="http://www.w3.org/2000/svg">
<path d="M52 15.8889V38.1111C52 41.7947 50.5367 45.3274 47.932 47.932C45.3274 50.5367 41.7947 52 38.1111 52H15.8889C12.2053 52 8.67263 50.5367 6.06796 47.932C3.46329 45.3274 2 41.7947 2 38.1111V15.8889C2 12.2053 3.46329 8.67263 6.06796 6.06796C8.67263 3.46329 12.2053 2 15.8889 2H38.1111C41.7947 2 45.3274 3.46329 47.932 6.06796C50.5367 8.67263 52 12.2053 52 15.8889Z" stroke="#F8F8F8" stroke-width="4" stroke-linecap="round" stroke-linejoin="round"/>
<path d="M22 27.1223C20.5166 27.1223 19.0666 27.4889 17.8332 28.1756C16.5999 28.8624 15.6386 29.8385 15.0709 30.9805C14.5032 32.1226 14.3547 33.3792 14.6441 34.5916C14.9335 35.804 15.6478 36.9177 16.6967 37.7917C17.7456 38.6658 19.082 39.2611 20.5368 39.5022C21.9917 39.7434 23.4997 39.6196 24.8701 39.1466C26.2406 38.6735 27.4119 37.8724 28.236 36.8446C29.0601 35.8168 29.5 34.6084 29.5 33.3723V14.6223C30.3325 16.7056 33.5 20.8723 39.5 20.8723" stroke="#F8F8F8" stroke-width="4" stroke-linecap="round" stroke-linejoin="round"/>
</svg>
